<svg height="32" style="width:100%;height:100%;transform:translate3d(0,0,0)" width="32" xmlns="http://www.w3.org/2000/svg" xmlns:xlink="http://www.w3.org/1999/xlink"><defs><linearGradient id="d" x1="62.206%" x2="18.689%" y1="70.45%" y2="39.245%"><stop offset="0%" stop-color="#F81212"/><stop offset="100%" stop-color="red"/></linearGradient><linearGradient id="g" x1="50%" x2="11.419%" y1="23.598%" y2="71.417%"><stop offset="0%" stop-color="#00F"/><stop offset="100%" stop-color="#0031FF"/></linearGradient><linearGradient id="i" x1="65.655%" x2="25.873%" y1="18.825%" y2="56.944%"><stop offset="0%" stop-color="#FFA600"/><stop offset="100%" stop-color="orange"/></linearGradient><linearGradient id="k" x1="24.964%" x2="63.407%" y1="8.849%" y2="55.625%"><stop offset="0%" stop-color="#13EFEC"/><stop offset="100%" stop-color="#00E8DF"/></linearGradient><filter id="e" width="230%" height="230%" x="-65%" y="-65%" filterUnits="objectBoundingBox"><feGaussianBlur in="SourceGraphic" stdDeviation="3.9"/></filter><filter id="h" width="312.7%" height="312.7%" x="-106.4%" y="-106.4%" filterUnits="objectBoundingBox"><feGaussianBlur in="SourceGraphic" stdDeviation="3.9"/></filter><filter id="j" width="295%" height="295%" x="-97.5%" y="-97.5%" filterUnits="objectBoundingBox"><feGaussianBlur in="SourceGraphic" stdDeviation="3.9"/></filter><filter id="l" width="256%" height="256%" x="-78%" y="-78%" filterUnits="objectBoundingBox"><feGaussianBlur in="SourceGraphic" stdDeviation="3.9"/></filter><path id="a" d="M3.333 14.167V5.833l-1.666.834L0 3.333 3.333 0h3.334c.04 1.57.548 2.4 1.524 2.492l.142.008C9.403 2.478 9.958 1.645 10 0h3.333l3.334 3.333L15 6.667l-1.667-.834v8.334h-10z"/><path id="c" d="M0 0h20v20H0z"/><path id="m" d="M3.333 14.167V5.833l-1.666.834L0 3.333 3.333 0h3.334c.04 1.57.548 2.4 1.524 2.492l.142.008C9.403 2.478 9.958 1.645 10 0h3.333l3.334 3.333L15 6.667l-1.667-.834v8.334h-10z"/></defs><g fill="none" fill-rule="evenodd" transform="translate(2 3)"><mask id="b" fill="#fff"><use xlink:href="#a"/></mask><use fill="#FFF" fill-opacity="0" xlink:href="#a"/><g mask="url(#b)"><g transform="translate(-2 -3)"><mask id="f" fill="#fff"><use xlink:href="#c"/></mask><use fill="#D8D8D8" xlink:href="#c"/><circle cx="8.9" cy="6.8" r="9" fill="url(#d)" filter="url(#e)" mask="url(#f)"/><circle cx="9.3" cy="13.7" r="5.5" fill="url(#g)" filter="url(#h)" mask="url(#f)"/><circle cx="15.9" cy="6.9" r="6" fill="url(#i)" filter="url(#j)" mask="url(#f)"/><circle cx="16.4" cy="17.7" r="7.5" fill="url(#k)" filter="url(#l)" mask="url(#f)"/></g></g><use fill="#FFF" fill-opacity=".05" xlink:href="#m"/></g></svg>