<svg id="changeColor" fill="#DC7633" xmlns="http://www.w3.org/2000/svg" xmlns:xlink="http://www.w3.org/1999/xlink" width="200" zoomAndPan="magnify" viewBox="0 0 375 374.9999" height="200" preserveAspectRatio="xMidYMid meet" version="1.0"><defs><path id="pathAttribute" d="M 26.25 18.460938 L 345 18.460938 L 345 337.210938 L 26.25 337.210938 Z M 26.25 18.460938 "></path></defs><g><path id="pathAttribute" d="M 193.71875 335.253906 C 113.402344 335.253906 48.296875 270.144531 48.296875 189.832031 C 48.296875 109.515625 113.402344 44.410156 193.71875 44.410156 C 274.03125 44.410156 339.136719 109.515625 339.136719 189.832031 C 339.136719 225.457031 326.316406 258.082031 305.050781 283.367188 C 329.910156 255.257812 345.007812 218.316406 345.007812 177.839844 C 345.007812 89.816406 273.652344 18.460938 185.628906 18.460938 C 97.605469 18.460938 26.25 89.816406 26.25 177.839844 C 26.25 265.863281 97.605469 337.21875 185.628906 337.21875 C 204.351562 337.21875 222.3125 333.980469 239 328.050781 C 224.746094 332.71875 209.53125 335.253906 193.71875 335.253906 " fill-opacity="1" fill-rule="nonzero"></path></g><g id="inner-icon" transform="translate(85, 75)"> <svg xmlns="http://www.w3.org/2000/svg" width="199.8" height="199.8" fill="currentColor" class="bi bi-code" viewBox="0 0 16 16" id="IconChangeColor"> <path d="M5.854 4.854a.5.5 0 1 0-.708-.708l-3.5 3.5a.5.5 0 0 0 0 .708l3.5 3.5a.5.5 0 0 0 .708-.708L2.707 8l3.147-3.146zm4.292 0a.5.5 0 0 1 .708-.708l3.5 3.5a.5.5 0 0 1 0 .708l-3.5 3.5a.5.5 0 0 1-.708-.708L13.293 8l-3.147-3.146z" id="mainIconPathAttribute"></path> </svg> </g></svg>