<?xml version="1.0" encoding="UTF-8"?>
<svg xmlns="http://www.w3.org/2000/svg" xmlns:xlink="http://www.w3.org/1999/xlink" width="193pt" height="193pt" viewBox="0 0 193 193" version="1.1">
<g id="surface1">
<path style=" stroke:none;fill-rule:evenodd;fill:rgb(100%,100%,100%);fill-opacity:1;" d="M 0 0.242188 L 192.757813 0.242188 L 192.757813 193 L 0 193 L 0 0.242188 "/>
<path style=" stroke:none;fill-rule:evenodd;fill:rgb(30.198669%,29.798889%,27.49939%);fill-opacity:1;" d="M 9.839844 75.53125 L 39.578125 75.53125 C 40.210938 75.53125 40.839844 76.164063 40.839844 76.796875 L 40.839844 86.5 L 61.652344 86.5 L 61.652344 76.796875 C 61.652344 76.164063 62.28125 75.53125 62.914063 75.53125 L 93.144531 75.53125 C 93.777344 75.53125 94.410156 76.164063 94.410156 76.796875 L 94.410156 116.445313 C 94.410156 117.078125 93.777344 117.710938 93.144531 117.710938 L 62.914063 117.710938 C 62.28125 117.710938 61.652344 117.078125 61.652344 116.445313 L 61.652344 105.691406 L 40.839844 105.691406 L 40.839844 116.445313 C 40.839844 117.078125 40.210938 117.710938 39.578125 117.710938 L 9.839844 117.710938 C 9.207031 117.710938 8.503906 117.078125 8.503906 116.445313 L 8.503906 76.796875 C 8.503906 76.164063 9.207031 75.53125 9.839844 75.53125 "/>
<path style=" stroke:none;fill-rule:evenodd;fill:rgb(64.698792%,57.598877%,50.19989%);fill-opacity:1;" d="M 9.839844 76.796875 L 39.578125 76.796875 L 39.578125 87.765625 L 62.914063 87.765625 L 62.914063 76.796875 L 93.144531 76.796875 L 93.144531 116.445313 L 62.914063 116.445313 L 62.914063 104.425781 L 39.578125 104.425781 L 39.578125 116.445313 L 9.839844 116.445313 L 9.839844 76.796875 "/>
<path style=" stroke:none;fill-rule:evenodd;fill:rgb(30.198669%,29.798889%,27.49939%);fill-opacity:1;" d="M 128.925781 82.492188 L 182.914063 82.492188 C 183.550781 82.492188 184.253906 83.125 184.253906 83.757813 L 184.253906 89.171875 C 184.253906 89.804688 183.550781 90.4375 182.914063 90.4375 L 168.363281 90.4375 L 168.363281 109.277344 C 168.363281 109.910156 167.730469 110.539063 167.097656 110.539063 L 143.972656 110.539063 C 143.339844 110.539063 142.703125 109.910156 142.703125 109.277344 L 142.703125 90.4375 L 128.925781 90.4375 C 128.292969 90.4375 127.660156 89.804688 127.660156 89.171875 L 127.660156 83.757813 C 127.660156 83.125 128.292969 82.492188 128.925781 82.492188 "/>
<path style=" stroke:none;fill-rule:evenodd;fill:rgb(64.698792%,57.598877%,50.19989%);fill-opacity:1;" d="M 128.925781 83.757813 L 182.914063 83.757813 L 182.914063 89.171875 L 167.097656 89.171875 L 167.097656 109.277344 L 143.972656 109.277344 L 143.972656 89.171875 L 128.925781 89.171875 L 128.925781 83.757813 "/>
<path style=" stroke:none;fill-rule:evenodd;fill:rgb(30.198669%,29.798889%,27.49939%);fill-opacity:1;" d="M 76.414063 82.492188 L 117.539063 82.492188 C 119.507813 82.492188 121.265625 83.335938 122.527344 84.601563 C 123.796875 85.867188 124.566406 87.625 124.566406 89.523438 L 124.566406 103.371094 C 124.566406 105.269531 123.796875 107.027344 122.527344 108.292969 C 121.265625 109.554688 119.507813 110.402344 117.539063 110.402344 L 76.414063 110.402344 C 74.515625 110.402344 72.757813 109.554688 71.492188 108.292969 C 70.226563 107.027344 69.382813 105.269531 69.382813 103.371094 L 69.382813 101.121094 C 69.382813 100.488281 70.015625 99.855469 70.648438 99.855469 L 93.144531 99.855469 C 93.777344 99.855469 94.410156 100.488281 94.410156 101.121094 L 94.410156 102.808594 L 94.480469 102.878906 C 94.480469 102.949219 94.480469 102.949219 94.550781 102.949219 L 99.542969 102.949219 C 99.613281 102.949219 99.683594 102.878906 99.683594 102.878906 L 99.683594 100.136719 L 97.011719 100.136719 C 96.378906 100.136719 95.816406 99.855469 95.394531 99.433594 C 94.972656 99.011719 94.691406 98.378906 94.691406 97.746094 L 94.691406 95.003906 C 94.691406 94.371094 94.972656 93.738281 95.394531 93.316406 C 95.816406 92.894531 96.519531 92.613281 97.152344 92.613281 L 99.683594 92.613281 L 99.683594 89.945313 C 99.683594 89.871094 99.683594 89.871094 99.683594 89.871094 C 99.683594 89.804688 99.613281 89.804688 99.542969 89.804688 L 94.550781 89.804688 C 94.480469 89.804688 94.480469 89.804688 94.480469 89.804688 C 94.480469 89.871094 94.410156 89.871094 94.410156 89.945313 L 94.410156 91.632813 C 94.410156 92.265625 93.777344 92.894531 93.144531 92.894531 L 70.648438 92.894531 C 70.015625 92.894531 69.382813 92.265625 69.382813 91.632813 L 69.382813 89.523438 C 69.382813 87.625 70.226563 85.867188 71.492188 84.601563 C 72.757813 83.335938 74.515625 82.492188 76.414063 82.492188 "/>
<path style=" stroke:none;fill-rule:evenodd;fill:rgb(64.698792%,57.598877%,50.19989%);fill-opacity:1;" d="M 76.414063 83.757813 L 117.539063 83.757813 C 120.699219 83.757813 123.304688 86.359375 123.304688 89.523438 L 123.304688 103.371094 C 123.304688 106.535156 120.699219 109.136719 117.539063 109.136719 L 76.414063 109.136719 C 73.25 109.136719 70.648438 106.535156 70.648438 103.371094 L 70.648438 101.121094 L 93.144531 101.121094 L 93.144531 102.457031 C 93.144531 103.230469 93.777344 103.863281 94.550781 103.863281 L 99.121094 103.863281 C 99.964844 103.863281 100.597656 103.230469 100.597656 102.457031 L 100.597656 99.292969 L 96.660156 99.292969 C 96.097656 99.292969 95.464844 98.308594 95.464844 97.746094 L 95.464844 95.003906 C 95.464844 94.371094 96.097656 93.457031 96.660156 93.457031 L 100.597656 93.457031 L 100.597656 90.226563 C 100.597656 89.453125 99.964844 88.820313 99.121094 88.820313 L 94.550781 88.820313 C 93.777344 88.820313 93.144531 89.453125 93.144531 90.226563 L 93.144531 91.632813 L 70.648438 91.632813 L 70.648438 89.523438 C 70.648438 86.359375 73.25 83.757813 76.414063 83.757813 "/>
</g>
</svg>
